<svg xmlns="http://www.w3.org/2000/svg" viewBox="0 0 24 24" width="24" height="24" fill="white">
  <path d="M17.05 13.5c-.91 0-1.82-.45-1.82-1.5h2.73c0-1.05-.91-1.5-1.82-1.5-1.36 0-2.73.91-2.73 2.45s1.36 2.45 2.73 2.45c1.05 0 1.82-.68 1.82-1.5h-2.73c0 1.05.91 1.5 1.82 1.5zm-7.27-3c-1.36 0-2.5 1.14-2.5 2.5s1.14 2.5 2.5 2.5 2.5-1.14 2.5-2.5-1.14-2.5-2.5-2.5zm0 3.64c-.64 0-1.14-.5-1.14-1.14s.5-1.14 1.14-1.14 1.14.5 1.14 1.14-.5 1.14-1.14 1.14zM6.05 9.91h1.36v4.36H6.05zm12.27 0h1.36v4.36h-1.36zM18 5.5c0-.27.23-.5.5-.5s.5.23.5.5-.23.5-.5.5-.5-.23-.5-.5zm-1 0c0-.27.23-.5.5-.5s.5.23.5.5-.23.5-.5.5-.5-.23-.5-.5z"/>
  <path d="M5 2h14c1.1 0 2 .9 2 2v16c0 1.1-.9 2-2 2H5c-1.1 0-2-.9-2-2V4c0-1.1.9-2 2-2zm0 2v16h14V4H5z"/>
</svg>