<svg xmlns="http://www.w3.org/2000/svg" viewBox="0 0 24 24" width="24" height="24">
  <!-- Google Pay Logo: Blue G -->
  <path d="M12 2C6.48 2 2 6.48 2 12s4.48 10 10 10 10-4.48 10-10S17.52 2 12 2zm0 18c-4.41 0-8-3.59-8-8s3.59-8 8-8 8 3.59 8 8-3.59 8-8 8zm0-13c-2.76 0-5 2.24-5 5s2.24 5 5 5 5-2.24 5-5-2.24-5-5-5z" fill="#4285F4"/>
  <!-- G shape overlay for Google Pay branding -->
  <path d="M12 7c2.21 0 4 1.79 4 4v.5h-2.5V11c0-1.1-.9-2-2-2s-2 .9-2 2 .9 2 2 2h3.5c1.1 0 2 .9 2 2s-.9 2-2 2h-3.5c-2.76 0-5-2.24-5-5s2.24-5 5-5z" fill="white" opacity="0.3"/>
</svg>